
        <svg xmlns="http://www.w3.org/2000/svg" xmlns:xlink="http://www.w3.org/1999/xlink" version="1.1" width="3143.6739914550076" height="609.1777237692322" viewBox="0 0 3143.6739914550076 609.1777237692322">
			
			<g transform="scale(7.18369957275038) translate(10, 10)">
				<defs id="SvgjsDefs1784"/><g id="SvgjsG1785" featureKey="nameLeftFeature-0" transform="matrix(2.5714285714285716,0,0,2.5714285714285716,-2.057142734527588,-0.42857020241873656)" fill="#fff"><path d="M4.16 15.1 l0 -2.52 l1.58 0 l0.38 -0.38 l0 -3.3 l-0.38 -0.38 l-1.58 0 l0 -2.52 l2.62 0 l1.86 1.86 l0 5.38 l-1.86 1.86 l-2.62 0 z M0.8 20 l0 -4.06 l2.52 0 l0 4.06 l-2.52 0 z M0.8 15.1 l0 -9.1 l2.52 0 l0 9.1 l-2.52 0 z M17.8965 20 l-1.36 -5.18 l-0.98 0 l0 -2.52 l1.58 0 l0.38 -0.38 l0 -3.02 l-0.38 -0.38 l-1.58 0 l0 -2.52 l2.62 0 l1.86 1.86 l0 5.1 l-1.08 1.1 l1.54 5.94 l-2.6 0 z M12.1965 20 l0 -4.34 l2.52 0 l0 4.34 l-2.52 0 z M12.1965 14.82 l0 -8.82 l2.52 0 l0 8.82 l-2.52 0 z M28.413 20 l0 -2.52 l0.8 0 l0.38 -0.38 l0 -8.2 l-0.38 -0.38 l-0.8 0 l0 -2.52 l1.84 0 l1.86 1.86 l0 10.28 l-1.86 1.86 l-1.84 0 z M25.713 20 l-1.86 -1.86 l0 -10.28 l1.86 -1.86 l1.84 0 l0 2.52 l-0.8 0 l-0.38 0.38 l0 8.2 l0.38 0.38 l0.8 0 l0 2.52 l-1.84 0 z M39.469500000000004 15.66 l-3.8 -9.66 l2.7 0 l2.1 5.3 l2.08 -5.3 l2.7 0 l-3.8 9.66 l-1.98 0 z M35.709500000000006 20 l0 -11.62 l2.52 6.42 l0 5.2 l-2.52 0 z M42.709500000000006 20 l0 -5.2 l2.52 -6.42 l0 11.62 l-2.52 0 z M53.366 20 l0 -2.52 l0.8 0 l0.38 -0.38 l0 -8.2 l-0.38 -0.38 l-0.8 0 l0 -2.52 l1.84 0 l1.86 1.86 l0 10.28 l-1.86 1.86 l-1.84 0 z M50.666 20 l-1.86 -1.86 l0 -10.28 l1.86 -1.86 l1.84 0 l0 2.52 l-0.8 0 l-0.38 0.38 l0 8.2 l0.38 0.38 l0.8 0 l0 2.52 l-1.84 0 z"/></g><g id="SvgjsG1786" featureKey="inlineSymbolFeature-0" transform="matrix(4.898260183531952,0,0,4.898260183531952,155.9279614380476,-9.071976082713947)" fill="#fff"><g xmlns="http://www.w3.org/2000/svg" transform="translate(0,-280.06665)"><path style="color:;font-style:normal;font-variant:normal;font-weight:normal;font-stretch:normal;font-size:medium;line-height:normal;font-family:sans-serif;font-variant-ligatures:normal;font-variant-position:normal;font-variant-caps:normal;font-variant-numeric:normal;font-variant-alternates:normal;font-feature-settings:normal;text-indent:0;text-align:start;text-decoration:none;text-decoration-line:none;text-decoration-style:solid;text-decoration-color:;letter-spacing:normal;word-spacing:normal;text-transform:none;writing-mode:lr-tb;direction:ltr;text-orientation:mixed;dominant-baseline:auto;baseline-shift:baseline;text-anchor:start;white-space:normal;shape-padding:0;clip-rule:nonzero;display:inline;overflow:visible;visibility:visible;opacity:1;isolation:auto;mix-blend-mode:normal;color-interpolation:sRGB;color-interpolation-filters:linearRGB;solid-color:;solid-opacity:1;vector-effect:none;fill:#ffffff;fill-opacity:1;fill-rule:nonzero;stroke:none;stroke-width:0.52916676;stroke-linecap:butt;stroke-linejoin:round;stroke-miterlimit:4;stroke-dasharray:none;stroke-dashoffset:0;stroke-opacity:1;paint-order:normal;color-rendering:auto;image-rendering:auto;shape-rendering:auto;text-rendering:auto;enable-background:accumulate" d="m 8.4633749,281.91872 a 0.26458487,0.26460524 0 0 0 -0.0259,0.002 0.26458487,0.26460524 0 0 0 -0.1565801,0.0765 l -1.7750296,1.77503 H 3.971215 a 0.26458487,0.26460524 0 0 0 -0.26561,0.26406 v 2.53671 l -1.77555,1.77348 a 0.26458487,0.26460524 0 0 0 0,0.37516 l 1.77555,1.77503 v 2.53516 a 0.26458487,0.26460524 0 0 0 0.26561,0.26561 h 2.5346501 l 1.7750298,1.77347 a 0.26458487,0.26460524 0 0 0 0.3730901,0 l 1.77555,-1.77347 h 2.53465 a 0.26458487,0.26460524 0 0 0 0.26561,-0.26561 v -2.53516 l 1.77348,-1.77503 a 0.26458487,0.26460524 0 0 0 0,-0.37516 l -1.77348,-1.77348 v -2.53671 a 0.26458487,0.26460524 0 0 0 -0.26561,-0.26406 h -2.53465 l -1.77555,-1.77503 a 0.26458487,0.26460524 0 0 0 -0.19068,-0.078 z m 1.0965401,3.70094 a 0.26420393,0.26403725 0 0 1 0.24752,0.36792 l -2.18791,5.27962 a 0.26420393,0.26403725 0 1 1 -0.48781,-0.2005 l 2.18791,-5.28168 a 0.26420393,0.26403725 0 0 1 0.24029,-0.16536 z m -2.3269201,0.003 c 0.5812102,0 1.0583,0.47758 1.0583,1.05933 0,0.58173 -0.4770898,1.05727 -1.0583,1.05727 -0.5812099,0 -1.0583098,-0.47554 -1.0583,-1.05727 -9.8e-6,-0.58175 0.4770901,-1.05933 1.0583,-1.05933 z m 0,0.52966 c -0.2953099,0 -0.52915,0.23409 -0.52915,0.52967 0,0.29558 0.2338401,0.52967 0.52915,0.52967 0.2953001,0 0.52915,-0.23409 0.52915,-0.52967 0,-0.29558 -0.2338499,-0.52967 -0.52915,-0.52967 z m -3.5423099,2.93927 a 0.26427664,0.26502313 0 0 1 0.18913,0.0801 l 0.8056101,0.8082 a 0.26427664,0.26502313 0 0 1 0.078,0.18757 v 0.44028 a 0.26432005,0.26506665 0 0 1 -0.5286401,0 v -0.33072 l -0.72965,-0.72966 a 0.26427664,0.26502313 0 0 1 0.18552,-0.45576 z m 6.01082,0.23512 c 0.58174,0 1.05726,0.47709 1.05726,1.05829 0,0.58121 -0.47552,1.0583 -1.05726,1.0583 -0.5817499,0 -1.05934,-0.47709 -1.05934,-1.0583 0,-0.5812 0.4775901,-1.05829 1.05934,-1.05829 z m 0,0.52914 c -0.29558,0 -0.5296701,0.23386 -0.5296701,0.52915 0,0.2953 0.2340901,0.52916 0.5296701,0.52916 0.29557,0 0.52966,-0.23386 0.52966,-0.52916 0,-0.2953 -0.23409,-0.52915 -0.52966,-0.52915 z m -5.20728,1.54611 a 0.26451797,0.26555327 0 0 1 0.2697401,0.26871 v 0.52347 a 0.26457529,0.26561085 0 1 1 -0.5291501,0 v -0.52347 a 0.26451797,0.26555327 0 0 1 0.25941,-0.26871 z"/></g></g><g id="SvgjsG1787" featureKey="nameRightFeature-0" transform="matrix(2.5714283962639133,0,0,2.5714283962639133,233.14042982779708,-0.42856792527826215)" fill="#fff"><path d="M9.9165 14.26 l0 -2.52 l2.24 0 l0 -5.74 l2.52 0 l0 8.26 l-4.76 0 z M6.5565 20 l0 -14 l2.52 0 l0 14 l-2.52 0 z M12.156500000000001 20 l0 -4.9 l2.52 0 l0 4.9 l-2.52 0 z M22.713 20 l0 -2.52 l0.74 0 l0.38 -0.38 l0 -11.1 l2.52 0 l0 12.14 l-1.86 1.86 l-1.78 0 z M20.093 20 l-1.86 -1.86 l0 -12.14 l2.52 0 l0 11.1 l0.38 0.38 l0.74 0 l0 2.52 l-1.78 0 z M35.3895 20 l-5.48 -14 l2.72 0 l2.92 7.48 l0 -7.48 l2.52 0 l0 14 l-2.68 0 z M29.9495 20 l0 -11.6 l2.52 6.42 l0 5.18 l-2.52 0 z M44.286 20 l0 -10.64 l2.52 0 l0 10.64 l-2.52 0 z M41.626 8.52 l0 -2.52 l7.84 0 l0 2.52 l-7.84 0 z M53.022499999999994 14.26 l0 -8.26 l2.52 0 l0 8.26 l-2.52 0 z M53.022499999999994 20 l0 -4.9 l2.52 0 l0 4.9 l-2.52 0 z M56.38249999999999 20 l0 -2.52 l3.5 0 l0 2.52 l-3.5 0 z M56.38249999999999 14.26 l0 -2.52 l2.38 0 l0 2.52 l-2.38 0 z M56.38249999999999 8.52 l0 -2.52 l3.5 0 l0 2.52 l-3.5 0 z M69.139 20 l-1.36 -5.18 l-0.98 0 l0 -2.52 l1.58 0 l0.38 -0.38 l0 -3.02 l-0.38 -0.38 l-1.58 0 l0 -2.52 l2.62 0 l1.86 1.86 l0 5.1 l-1.08 1.1 l1.54 5.94 l-2.6 0 z M63.43899999999999 20 l0 -4.34 l2.52 0 l0 4.34 l-2.52 0 z M63.43899999999999 14.82 l0 -8.82 l2.52 0 l0 8.82 l-2.52 0 z"/></g>
			</g>
		</svg>
	