<svg width="582" height="95" viewBox="0 0 582 95" fill="none" xmlns="http://www.w3.org/2000/svg">
<path d="M61.9999 49.0477C62 54.8819 60.3486 60.5973 57.2362 65.5349C54.1239 70.4725 49.6773 74.4312 44.4092 76.9547C39.141 79.4781 33.2659 80.4634 27.4613 79.797C21.6566 79.1307 16.1587 76.8397 11.6016 73.1884C13.5764 73.6257 15.5934 73.8457 17.6163 73.8443C24.4112 73.8443 30.6654 71.3823 35.6304 67.2724C41.2136 62.6436 45.1658 55.9099 46.4234 48.2C49.407 48.5799 52.7111 47.5529 55.2825 45.1523C56.8525 43.7056 57.9912 41.8535 58.5725 39.8008C58.9888 38.3187 59.0492 36.7593 58.7487 35.2495C58.8297 35.406 58.9072 35.5661 58.9829 35.7243C60.973 39.8846 62.0039 44.4373 61.9999 49.0477Z" fill="#E5E5E5"/>
<path d="M35.6304 67.2725C30.6654 71.3894 24.4112 73.8445 17.6163 73.8445C15.5934 73.8458 13.5765 73.6259 11.6016 73.1885C8.06341 70.3545 5.19124 66.7797 3.18774 62.7163C1.18424 58.6529 0.0982352 54.2 0.00636012 49.6718C-0.0855149 45.1437 0.818977 40.6505 2.65601 36.5094C4.49305 32.3684 7.21786 28.6804 10.6382 25.7056C6.85146 30.1127 4.58296 35.7297 4.58296 41.8322C4.58296 56.012 16.8061 67.5081 31.8825 67.5081C33.1356 67.5108 34.3875 67.4321 35.6304 67.2725V67.2725Z" fill="url(#paint0_linear_1482_2)"/>
<path d="M58.6535 41.88C58.6535 54.8428 48.6355 65.5599 35.6304 67.2728C41.1026 62.6388 44.9738 55.8927 46.1979 48.1688L46.4304 48.2005C49.414 48.5803 52.7181 47.5533 55.2895 45.1528C56.8569 43.7052 57.9931 41.8532 58.5725 39.8013C58.6254 40.4871 58.6524 41.18 58.6535 41.88Z" fill="url(#paint1_linear_1482_2)"/>
<path d="M53.7221 33.0444C53.0176 36.5616 50.9041 40.7823 44.3874 41.1341C44.3874 40.6065 48.0861 39.0237 46.1487 34.0995C45.6449 33.2958 44.8559 32.0349 43.0242 31.3279C41.6487 30.8004 39.6778 30.5823 36.814 31.1099C31.7064 32.5168 20.9627 37.9685 23.7807 50.8065C24.8251 54.978 25.8378 60.3523 35.9105 63.8713C35.0989 63.9547 34.2835 63.9964 33.4676 63.9962C29.3725 64.0034 25.3469 62.9396 21.7915 60.9106C18.2361 58.8816 15.2749 55.9583 13.2026 52.4315C13.1797 52.3945 13.1585 52.3576 13.1374 52.3189C11.1053 48.8131 10.0377 44.833 10.0429 40.7823V40.668C10.0538 37.3895 10.7679 34.1513 12.137 31.1714V31.1714C12.8384 29.6495 13.7036 28.2084 14.7173 26.8733C6.61548 21.2756 5.30158 11.32 5.99375 5.78564C10.6347 17.2431 19.5449 18.7784 23.9868 18.7784C24.8753 18.7891 25.763 18.7203 26.6392 18.5726C30.9156 17.2846 35.4704 17.2361 39.7734 18.4326C44.0764 19.6291 47.9504 22.0214 50.9446 25.331C50.951 25.3363 50.9569 25.3422 50.9622 25.3486C51.2757 25.7003 51.5804 26.0521 51.8728 26.4267C52.4611 27.2235 52.9354 28.0983 53.2818 29.0259C53.7739 30.3049 53.9256 31.6894 53.7221 33.0444V33.0444Z" fill="white"/>
<path d="M28.5676 1.61755L37.9904 0.194824L44.3555 7.12381L40.1479 7.01654L31.641 3.95477L28.5676 1.61755Z" fill="white"/>
<path d="M40.0793 7.36692L39.5509 8.53465H39.5386L36.8175 8.06157L36.703 8.04223L35.884 7.7204C35.4543 7.54805 35.0492 7.38099 34.6687 7.21919C32.7437 6.37681 31.2942 5.50277 31.1832 5.11763C31.1814 5.09128 31.1814 5.06484 31.1832 5.03849C31.2026 4.86263 31.3259 4.77998 31.6059 4.11521C31.7503 3.77404 31.7327 3.76349 31.8032 3.61401C32.0247 3.18482 32.3793 2.83872 32.8141 2.62742C33.0378 2.5219 33.413 2.40231 34.4873 2.58873C35.3586 2.75104 36.2071 3.01733 37.0147 3.38187C37.8009 3.69902 38.5446 4.11254 39.2286 4.61291C39.9948 5.19325 40.1568 5.50805 40.2325 5.71732C40.4862 6.42429 40.2044 7.10664 40.0793 7.36692Z" fill="white"/>
<path d="M39.5315 8.53456C39.4206 8.78605 38.311 8.57677 36.8104 8.06149C36.5121 7.95949 36.201 7.84577 35.8769 7.72032C35.6215 7.62183 35.3591 7.51632 35.0932 7.40376L34.6616 7.21911C32.7366 6.37673 31.2871 5.50269 31.1761 5.11755C31.1672 5.08951 31.1672 5.05941 31.1761 5.03138V5.03138C31.3205 4.67965 33.3072 5.19317 35.6145 6.16042C37.9217 7.12766 39.6759 8.19339 39.5315 8.53456Z" fill="white"/>
<path d="M38.0785 0L37.9905 0.195208L44.3557 7.1242L44.4455 6.92723L38.0785 0Z" fill="white"/>
<path d="M37.9904 0.195208L38.0784 0L28.6557 1.42273L28.5676 1.61794L37.9904 0.195208Z" fill="white"/>
<path d="M40.9194 3.08252C40.9194 3.08252 41.7772 3.14583 42.1875 4.45249C42.4553 5.49008 42.3337 6.73871 42.3637 6.92336C42.3936 7.10802 42.4253 8.60461 43.1281 9.01085C43.348 9.02874 43.5644 9.07728 43.7709 9.15506C44.065 9.28871 44.7202 9.73365 45.2768 9.80927C45.2978 9.91025 45.2929 10.0149 45.2627 10.1135C45.2323 10.2402 45.1935 10.3648 45.1465 10.4863C45.1465 10.4863 43.3958 10.372 42.9537 9.19727C42.3904 8.57412 42.0845 7.76096 42.0977 6.9216C42.066 6.02294 42.2351 4.09197 40.9194 3.08252Z" fill="white"/>
<path d="M33.5558 16.865C36.6198 16.865 39.1037 14.3848 39.1037 11.3253C39.1037 8.26584 36.6198 5.78564 33.5558 5.78564C30.4917 5.78564 28.0078 8.26584 28.0078 11.3253C28.0078 14.3848 30.4917 16.865 33.5558 16.865Z" fill="white"/>
<path d="M45.3018 9.96808C45.3018 9.96808 44.5319 10.1355 44.2341 9.87646C44.4878 10.3064 45.2137 10.3099 45.2137 10.3099L45.3018 9.96808Z" fill="white"/>
<path d="M96.52 70.27C93.316 70.27 90.418 69.55 87.826 68.11C85.27 66.67 83.236 64.564 81.724 61.792C80.212 58.984 79.456 55.636 79.456 51.748C79.456 46.276 80.446 41.452 82.426 37.276C84.442 33.1 87.16 29.878 90.58 27.61C94.036 25.342 97.852 24.208 102.028 24.208C105.232 24.208 108.112 24.928 110.668 26.368C113.26 27.808 115.312 29.932 116.824 32.74C118.336 35.512 119.092 38.842 119.092 42.73C119.092 48.202 118.084 53.026 116.068 57.202C114.088 61.378 111.37 64.6 107.914 66.868C104.494 69.136 100.696 70.27 96.52 70.27ZM97.06 63.898C99.868 63.898 102.334 63.034 104.458 61.306C106.618 59.578 108.274 57.184 109.426 54.124C110.578 51.028 111.154 47.536 111.154 43.648C111.154 39.364 110.254 36.124 108.454 33.928C106.654 31.696 104.332 30.58 101.488 30.58C98.716 30.58 96.268 31.444 94.144 33.172C92.02 34.864 90.364 37.258 89.176 40.354C87.988 43.414 87.394 46.906 87.394 50.83C87.394 55.114 88.294 58.372 90.094 60.604C91.894 62.8 94.216 63.898 97.06 63.898ZM152.471 57.958C152.939 57.958 153.299 58.174 153.551 58.606C153.839 59.038 153.983 59.632 153.983 60.388C153.983 61.828 153.641 62.944 152.957 63.736C151.373 65.608 149.627 67.174 147.719 68.434C145.847 69.658 143.723 70.27 141.347 70.27C139.511 70.27 137.873 69.928 136.433 69.244C135.029 68.56 133.913 67.588 133.085 66.328C131.033 68.92 128.603 70.216 125.795 70.216C123.815 70.216 122.249 69.64 121.097 68.488C119.945 67.336 119.369 65.806 119.369 63.898C119.369 62.098 119.783 60.64 120.611 59.524C121.439 58.408 122.609 57.85 124.121 57.85C125.417 57.85 126.065 58.336 126.065 59.308C126.065 59.56 126.029 60.01 125.957 60.658C125.849 61.954 125.795 62.692 125.795 62.872C125.795 63.952 126.263 64.492 127.199 64.492C127.883 64.492 128.531 64.096 129.143 63.304C129.791 62.476 130.313 61.36 130.709 59.956C131.141 58.552 131.357 57.004 131.357 55.312C131.357 54.016 131.195 52.936 130.871 52.072C130.547 51.172 130.151 50.722 129.683 50.722C129.287 50.722 128.999 50.83 128.819 51.046C128.639 51.226 128.459 51.55 128.279 52.018C128.063 52.594 127.775 53.062 127.415 53.422C127.055 53.746 126.425 53.908 125.525 53.908C124.733 53.908 124.103 53.638 123.635 53.098C123.167 52.522 122.933 51.658 122.933 50.506C122.933 48.67 123.491 47.23 124.607 46.186C125.723 45.142 127.163 44.62 128.927 44.62C130.439 44.62 131.807 44.998 133.031 45.754C134.255 46.474 135.191 47.536 135.839 48.94C136.919 47.5 138.125 46.42 139.457 45.7C140.825 44.98 142.157 44.62 143.453 44.62C144.857 44.62 145.919 44.944 146.639 45.592C147.395 46.24 147.773 47.284 147.773 48.724C147.773 50.344 147.467 51.622 146.855 52.558C146.243 53.458 145.505 53.908 144.641 53.908C143.849 53.908 143.309 53.746 143.021 53.422C142.733 53.098 142.517 52.63 142.373 52.018C142.301 51.586 142.193 51.262 142.049 51.046C141.905 50.83 141.653 50.722 141.293 50.722C140.861 50.722 140.393 51.136 139.889 51.964C139.421 52.756 139.007 53.818 138.647 55.15C138.323 56.482 138.161 57.868 138.161 59.308C138.161 61 138.557 62.314 139.349 63.25C140.177 64.15 141.293 64.6 142.697 64.6C144.101 64.6 145.415 64.132 146.639 63.196C147.899 62.224 149.357 60.73 151.013 58.714C151.445 58.21 151.931 57.958 152.471 57.958ZM178.353 53.422C178.821 53.422 179.181 53.656 179.433 54.124C179.685 54.592 179.811 55.186 179.811 55.906C179.811 56.806 179.685 57.508 179.433 58.012C179.181 58.48 178.785 58.804 178.245 58.984C176.085 59.74 173.709 60.172 171.117 60.28C170.397 63.268 169.029 65.68 167.013 67.516C165.033 69.352 162.837 70.27 160.425 70.27C156.789 70.27 154.143 68.884 152.487 66.112C150.831 63.34 150.003 59.326 150.003 54.07C150.003 49.426 150.579 44.386 151.731 38.95C152.883 33.478 154.557 28.834 156.753 25.018C158.985 21.166 161.631 19.24 164.691 19.24C166.347 19.24 167.679 19.96 168.687 21.4C169.695 22.804 170.199 24.64 170.199 26.908C170.199 29.86 169.641 32.794 168.525 35.71C167.409 38.626 165.555 41.686 162.963 44.89C165.375 45.07 167.337 46.078 168.849 47.914C170.361 49.714 171.261 51.946 171.549 54.61C173.241 54.502 175.257 54.142 177.597 53.53C177.813 53.458 178.065 53.422 178.353 53.422ZM163.449 24.586C162.729 24.586 161.937 25.666 161.073 27.826C160.245 29.95 159.471 32.848 158.751 36.52C158.031 40.192 157.491 44.206 157.131 48.562C159.507 44.206 161.397 40.372 162.801 37.06C164.241 33.712 164.961 30.742 164.961 28.15C164.961 26.998 164.817 26.116 164.529 25.504C164.277 24.892 163.917 24.586 163.449 24.586ZM160.641 64.546C161.757 64.546 162.747 64.078 163.611 63.142C164.475 62.206 165.051 60.856 165.339 59.092C164.223 58.336 163.359 57.346 162.747 56.122C162.171 54.898 161.883 53.602 161.883 52.234C161.883 51.73 161.955 51.046 162.099 50.182H161.937C160.461 50.182 159.219 50.92 158.211 52.396C157.239 53.836 156.753 55.78 156.753 58.228C156.753 60.28 157.131 61.846 157.887 62.926C158.679 64.006 159.597 64.546 160.641 64.546ZM178.983 70.27C177.615 70.27 176.643 69.55 176.067 68.11C175.527 66.67 175.257 64.366 175.257 61.198C175.257 56.518 175.923 52.072 177.255 47.86C177.579 46.816 178.101 46.06 178.821 45.592C179.577 45.088 180.621 44.836 181.953 44.836C182.673 44.836 183.177 44.926 183.465 45.106C183.753 45.286 183.897 45.628 183.897 46.132C183.897 46.708 183.627 48.004 183.087 50.02C182.727 51.46 182.439 52.72 182.223 53.8C182.007 54.88 181.827 56.212 181.683 57.796C182.871 54.7 184.203 52.18 185.679 50.236C187.155 48.292 188.595 46.906 189.999 46.078C191.439 45.25 192.753 44.836 193.941 44.836C196.281 44.836 197.451 46.006 197.451 48.346C197.451 48.814 197.289 49.948 196.965 51.748C196.677 53.188 196.533 54.088 196.533 54.448C196.533 55.708 196.983 56.338 197.883 56.338C198.891 56.338 200.187 55.546 201.771 53.962C202.239 53.494 202.725 53.26 203.229 53.26C203.697 53.26 204.057 53.476 204.309 53.908C204.597 54.304 204.741 54.844 204.741 55.528C204.741 56.86 204.381 57.904 203.661 58.66C202.653 59.704 201.465 60.604 200.097 61.36C198.765 62.08 197.343 62.44 195.831 62.44C193.923 62.44 192.465 61.954 191.457 60.982C190.485 60.01 189.999 58.696 189.999 57.04C189.999 56.5 190.053 55.96 190.161 55.42C190.233 54.7 190.269 54.214 190.269 53.962C190.269 53.386 190.071 53.098 189.675 53.098C189.135 53.098 188.415 53.71 187.515 54.934C186.651 56.122 185.787 57.706 184.923 59.686C184.059 61.666 183.357 63.754 182.817 65.95C182.421 67.642 181.953 68.794 181.413 69.406C180.909 69.982 180.099 70.27 178.983 70.27ZM206.797 41.272C205.285 41.272 204.151 40.93 203.395 40.246C202.639 39.526 202.261 38.536 202.261 37.276C202.261 36.016 202.747 34.972 203.719 34.144C204.727 33.28 205.969 32.848 207.445 32.848C208.777 32.848 209.857 33.172 210.685 33.82C211.513 34.468 211.927 35.386 211.927 36.574C211.927 38.014 211.459 39.166 210.523 40.03C209.587 40.858 208.345 41.272 206.797 41.272ZM206.365 70.27C204.025 70.27 202.315 69.442 201.235 67.786C200.191 66.13 199.669 63.934 199.669 61.198C199.669 59.578 199.867 57.508 200.263 54.988C200.695 52.432 201.235 50.056 201.883 47.86C202.207 46.708 202.639 45.916 203.179 45.484C203.719 45.052 204.583 44.836 205.771 44.836C207.607 44.836 208.525 45.448 208.525 46.672C208.525 47.572 208.183 49.66 207.499 52.936C206.635 56.896 206.203 59.578 206.203 60.982C206.203 62.062 206.347 62.89 206.635 63.466C206.923 64.042 207.409 64.33 208.093 64.33C208.741 64.33 209.551 63.88 210.523 62.98C211.495 62.08 212.791 60.658 214.411 58.714C214.843 58.21 215.329 57.958 215.869 57.958C216.337 57.958 216.697 58.174 216.949 58.606C217.237 59.038 217.381 59.632 217.381 60.388C217.381 61.828 217.039 62.944 216.355 63.736C212.791 68.092 209.461 70.27 206.365 70.27ZM243.684 57.958C244.152 57.958 244.512 58.174 244.764 58.606C245.052 59.038 245.196 59.632 245.196 60.388C245.196 61.828 244.854 62.944 244.17 63.736C242.694 65.536 241.074 67.084 239.31 68.38C237.546 69.64 235.8 70.27 234.072 70.27C231.336 70.27 229.248 68.668 227.808 65.464C226.296 67.372 224.964 68.65 223.812 69.298C222.696 69.946 221.382 70.27 219.87 70.27C217.674 70.27 215.856 69.46 214.416 67.84C213.012 66.184 212.31 64.042 212.31 61.414C212.31 58.534 212.922 55.87 214.146 53.422C215.37 50.938 217.044 48.922 219.168 47.374C221.328 45.79 223.74 44.854 226.404 44.566C227.088 37.582 228.384 31.624 230.292 26.692C232.236 21.724 234.774 19.24 237.906 19.24C239.454 19.24 240.732 19.942 241.74 21.346C242.784 22.75 243.306 24.874 243.306 27.718C243.306 31.75 242.316 36.466 240.336 41.866C238.356 47.266 235.71 52.81 232.398 58.498C232.542 60.586 232.848 62.08 233.316 62.98C233.82 63.88 234.45 64.33 235.206 64.33C236.178 64.33 237.168 63.898 238.176 63.034C239.184 62.17 240.534 60.73 242.226 58.714C242.658 58.21 243.144 57.958 243.684 57.958ZM237.312 24.532C236.628 24.532 235.944 25.756 235.26 28.204C234.576 30.616 233.982 33.784 233.478 37.708C233.01 41.632 232.668 45.736 232.452 50.02C236.484 41.236 238.5 34.18 238.5 28.852C238.5 27.484 238.374 26.422 238.122 25.666C237.906 24.91 237.636 24.532 237.312 24.532ZM221.76 64.816C222.444 64.816 223.128 64.546 223.812 64.006C224.496 63.43 225.36 62.386 226.404 60.874C226.044 58.93 225.864 56.752 225.864 54.34C225.864 53.476 225.9 52.072 225.972 50.128C223.992 50.74 222.336 52.072 221.004 54.124C219.708 56.14 219.06 58.39 219.06 60.874C219.06 63.502 219.96 64.816 221.76 64.816ZM267.924 58.066C268.392 58.066 268.752 58.3 269.004 58.768C269.292 59.2 269.436 59.758 269.436 60.442C269.436 61.27 269.31 61.918 269.058 62.386C268.806 62.854 268.41 63.268 267.87 63.628C264.774 65.716 262.506 67.264 261.066 68.272L257.61 70.594C256.242 78.046 254.442 83.896 252.21 88.144C250.014 92.428 247.206 94.57 243.786 94.57C241.95 94.57 240.456 93.994 239.304 92.842C238.152 91.726 237.576 90.25 237.576 88.414C237.576 85.858 238.584 83.104 240.6 80.152C242.616 77.236 246.396 73.636 251.94 69.352L252.264 67.246C251.652 68.218 250.842 68.974 249.834 69.514C248.862 70.018 247.89 70.27 246.918 70.27C244.686 70.27 242.904 69.46 241.572 67.84C240.24 66.22 239.574 64.096 239.574 61.468C239.574 58.588 240.24 55.87 241.572 53.314C242.904 50.722 244.668 48.652 246.864 47.104C249.096 45.52 251.454 44.728 253.938 44.728C254.73 44.728 255.252 44.89 255.504 45.214C255.792 45.502 256.026 46.042 256.206 46.834C256.89 46.69 257.682 46.618 258.582 46.618C259.482 46.618 260.112 46.762 260.472 47.05C260.868 47.302 261.066 47.824 261.066 48.616C261.066 49.048 261.048 49.39 261.012 49.642C260.868 50.758 260.418 53.584 259.662 58.12C259.518 58.984 259.356 59.938 259.176 60.982C259.032 61.99 258.87 63.07 258.69 64.222C261.462 62.062 264.126 60.154 266.682 58.498C267.15 58.21 267.564 58.066 267.924 58.066ZM248.862 64.816C249.69 64.816 250.482 64.312 251.238 63.304C251.994 62.296 252.534 60.856 252.858 58.984L254.586 49.75C253.11 49.786 251.742 50.362 250.482 51.478C249.222 52.558 248.214 53.998 247.458 55.798C246.702 57.598 246.324 59.506 246.324 61.522C246.324 62.638 246.54 63.466 246.972 64.006C247.44 64.546 248.07 64.816 248.862 64.816ZM244.38 89.332C245.28 89.332 246.288 88.252 247.404 86.092C248.556 83.932 249.654 80.494 250.698 75.778C247.926 78.154 245.928 80.296 244.704 82.204C243.48 84.112 242.868 85.786 242.868 87.226C242.868 87.838 242.976 88.342 243.192 88.738C243.444 89.134 243.84 89.332 244.38 89.332ZM285.447 59.578C285.915 59.578 286.275 59.794 286.527 60.226C286.815 60.658 286.959 61.252 286.959 62.008C286.959 63.304 286.653 64.42 286.041 65.356C285.033 66.904 283.701 68.11 282.045 68.974C280.425 69.838 278.481 70.27 276.213 70.27C272.757 70.27 270.075 69.244 268.167 67.192C266.259 65.104 265.305 62.296 265.305 58.768C265.305 56.284 265.827 53.98 266.871 51.856C267.915 49.696 269.355 47.986 271.191 46.726C273.063 45.466 275.169 44.836 277.509 44.836C279.597 44.836 281.271 45.466 282.531 46.726C283.791 47.95 284.421 49.624 284.421 51.748C284.421 54.232 283.521 56.374 281.721 58.174C279.957 59.938 276.933 61.342 272.649 62.386C273.513 64.042 274.971 64.87 277.023 64.87C278.499 64.87 279.705 64.528 280.641 63.844C281.613 63.16 282.729 62.008 283.989 60.388C284.421 59.848 284.907 59.578 285.447 59.578ZM276.591 50.128C275.259 50.128 274.125 50.902 273.189 52.45C272.289 53.998 271.839 55.87 271.839 58.066V58.174C273.963 57.67 275.637 56.914 276.861 55.906C278.085 54.898 278.697 53.728 278.697 52.396C278.697 51.712 278.499 51.172 278.103 50.776C277.743 50.344 277.239 50.128 276.591 50.128ZM371.188 46.672C372.016 46.672 372.61 46.852 372.97 47.212C373.366 47.572 373.564 48.04 373.564 48.616C373.564 49.552 373.276 50.38 372.7 51.1C372.16 51.82 371.296 52.198 370.108 52.234C367.264 52.27 364.708 52.054 362.44 51.586C359.92 56.95 356.878 61.414 353.314 64.978C349.786 68.506 346.294 70.27 342.838 70.27C339.67 70.27 337.294 68.596 335.71 65.248C334.126 61.864 333.226 57.346 333.01 51.694C330.85 57.958 328.402 62.62 325.666 65.68C322.966 68.74 320.086 70.27 317.026 70.27C313.57 70.27 310.96 68.128 309.196 63.844C307.432 59.524 306.55 53.728 306.55 46.456C306.55 41.164 307.018 35.35 307.954 29.014C308.206 27.214 308.656 25.972 309.304 25.288C309.988 24.568 311.05 24.208 312.49 24.208C313.57 24.208 314.398 24.442 314.974 24.91C315.586 25.378 315.892 26.242 315.892 27.502C315.892 27.754 315.856 28.24 315.784 28.96C314.704 36.34 314.164 42.622 314.164 47.806C314.164 52.63 314.578 56.356 315.406 58.984C316.234 61.612 317.35 62.926 318.754 62.926C320.014 62.926 321.526 61.612 323.29 58.984C325.09 56.32 326.872 52.396 328.636 47.212C330.4 41.992 331.894 35.782 333.118 28.582C333.406 26.926 333.928 25.792 334.684 25.18C335.476 24.532 336.538 24.208 337.87 24.208C338.986 24.208 339.796 24.46 340.3 24.964C340.84 25.432 341.11 26.152 341.11 27.124C341.11 27.7 341.074 28.15 341.002 28.474C339.994 34.342 339.49 40.21 339.49 46.078C339.49 50.074 339.616 53.26 339.868 55.636C340.156 58.012 340.678 59.83 341.434 61.09C342.226 62.314 343.36 62.926 344.836 62.926C346.564 62.926 348.49 61.63 350.614 59.038C352.738 56.41 354.682 53.152 356.446 49.264C354.25 47.896 352.594 46.132 351.478 43.972C350.362 41.776 349.804 39.256 349.804 36.412C349.804 33.568 350.236 31.174 351.1 29.23C352 27.25 353.206 25.774 354.718 24.802C356.266 23.83 357.976 23.344 359.848 23.344C362.152 23.344 363.97 24.172 365.302 25.828C366.67 27.484 367.354 29.752 367.354 32.632C367.354 36.7 366.472 41.218 364.708 46.186C366.544 46.51 368.704 46.672 371.188 46.672ZM355.258 36.034C355.258 39.562 356.392 42.172 358.66 43.864C360.064 39.832 360.766 36.502 360.766 33.874C360.766 32.362 360.568 31.264 360.172 30.58C359.776 29.86 359.236 29.5 358.552 29.5C357.58 29.5 356.788 30.076 356.176 31.228C355.564 32.344 355.258 33.946 355.258 36.034ZM398.285 57.958C398.753 57.958 399.113 58.174 399.365 58.606C399.653 59.038 399.797 59.632 399.797 60.388C399.797 61.828 399.455 62.944 398.771 63.736C397.115 65.644 395.405 67.21 393.641 68.434C391.913 69.658 389.933 70.27 387.701 70.27C385.865 70.27 384.479 69.748 383.543 68.704C382.607 67.624 382.139 66.076 382.139 64.06C382.139 63.052 382.391 61.252 382.895 58.66C383.363 56.392 383.597 54.826 383.597 53.962C383.597 53.386 383.399 53.098 383.003 53.098C382.535 53.098 381.869 53.71 381.005 54.934C380.141 56.122 379.277 57.706 378.413 59.686C377.549 61.666 376.847 63.754 376.307 65.95C375.623 68.83 373.931 70.27 371.231 70.27C370.151 70.27 369.431 69.892 369.071 69.136C368.747 68.344 368.585 66.94 368.585 64.924C368.585 63.772 368.603 62.854 368.639 62.17L368.693 57.85C368.693 52.306 369.251 46.528 370.367 40.516C371.519 34.504 373.193 29.464 375.389 25.396C377.621 21.292 380.285 19.24 383.381 19.24C385.037 19.24 386.369 19.96 387.377 21.4C388.421 22.804 388.943 24.64 388.943 26.908C388.943 30.544 387.881 34.324 385.757 38.248C383.633 42.136 380.177 46.69 375.389 51.91C375.281 53.782 375.227 55.708 375.227 57.688C376.415 54.628 377.729 52.144 379.169 50.236C380.645 48.292 382.085 46.906 383.489 46.078C384.929 45.25 386.243 44.836 387.431 44.836C389.771 44.836 390.941 46.006 390.941 48.346C390.941 49.75 390.545 52.288 389.753 55.96C389.069 59.092 388.727 61.162 388.727 62.17C388.727 63.61 389.249 64.33 390.293 64.33C391.013 64.33 391.859 63.898 392.831 63.034C393.839 62.134 395.171 60.694 396.827 58.714C397.259 58.21 397.745 57.958 398.285 57.958ZM382.247 24.586C381.599 24.586 380.879 25.522 380.087 27.394C379.295 29.23 378.521 31.732 377.765 34.9C377.045 38.032 376.451 41.452 375.983 45.16C378.215 42.532 380.051 39.67 381.491 36.574C382.967 33.478 383.705 30.67 383.705 28.15C383.705 26.998 383.579 26.116 383.327 25.504C383.075 24.892 382.715 24.586 382.247 24.586ZM402.494 41.272C400.982 41.272 399.848 40.93 399.092 40.246C398.336 39.526 397.958 38.536 397.958 37.276C397.958 36.016 398.444 34.972 399.416 34.144C400.424 33.28 401.666 32.848 403.142 32.848C404.474 32.848 405.554 33.172 406.382 33.82C407.21 34.468 407.624 35.386 407.624 36.574C407.624 38.014 407.156 39.166 406.22 40.03C405.284 40.858 404.042 41.272 402.494 41.272ZM402.062 70.27C399.722 70.27 398.012 69.442 396.932 67.786C395.888 66.13 395.366 63.934 395.366 61.198C395.366 59.578 395.564 57.508 395.96 54.988C396.392 52.432 396.932 50.056 397.58 47.86C397.904 46.708 398.336 45.916 398.876 45.484C399.416 45.052 400.28 44.836 401.468 44.836C403.304 44.836 404.222 45.448 404.222 46.672C404.222 47.572 403.88 49.66 403.196 52.936C402.332 56.896 401.9 59.578 401.9 60.982C401.9 62.062 402.044 62.89 402.332 63.466C402.62 64.042 403.106 64.33 403.79 64.33C404.438 64.33 405.248 63.88 406.22 62.98C407.192 62.08 408.488 60.658 410.108 58.714C410.54 58.21 411.026 57.958 411.566 57.958C412.034 57.958 412.394 58.174 412.646 58.606C412.934 59.038 413.078 59.632 413.078 60.388C413.078 61.828 412.736 62.944 412.052 63.736C408.488 68.092 405.158 70.27 402.062 70.27ZM432.793 57.958C433.261 57.958 433.621 58.174 433.873 58.606C434.161 59.038 434.305 59.632 434.305 60.388C434.305 61.828 433.963 62.944 433.279 63.736C431.731 65.644 430.039 67.21 428.203 68.434C426.367 69.658 424.261 70.27 421.885 70.27C414.541 70.27 410.869 65.104 410.869 54.772C410.869 53.188 410.923 51.586 411.031 49.966H408.925C407.845 49.966 407.107 49.768 406.711 49.372C406.351 48.976 406.171 48.346 406.171 47.482C406.171 45.466 406.981 44.458 408.601 44.458H411.679C412.291 40.498 413.227 36.88 414.487 33.604C415.747 30.328 417.259 27.718 419.023 25.774C420.823 23.83 422.749 22.858 424.801 22.858C426.313 22.858 427.501 23.524 428.365 24.856C429.229 26.188 429.661 27.862 429.661 29.878C429.661 35.458 427.321 40.318 422.641 44.458H428.689C429.265 44.458 429.679 44.584 429.931 44.836C430.183 45.088 430.309 45.556 430.309 46.24C430.309 48.724 428.275 49.966 424.207 49.966H417.619C417.547 51.766 417.511 53.17 417.511 54.178C417.511 57.922 417.943 60.55 418.807 62.062C419.707 63.574 421.111 64.33 423.019 64.33C424.567 64.33 425.935 63.862 427.123 62.926C428.311 61.99 429.715 60.586 431.335 58.714C431.767 58.21 432.253 57.958 432.793 57.958ZM423.343 28.042C422.803 28.042 422.191 28.726 421.507 30.094C420.859 31.426 420.229 33.298 419.617 35.71C419.041 38.086 418.555 40.732 418.159 43.648C420.283 41.812 421.867 39.76 422.911 37.492C423.991 35.188 424.531 33.1 424.531 31.228C424.531 29.104 424.135 28.042 423.343 28.042ZM453.992 57.958C454.46 57.958 454.82 58.174 455.072 58.606C455.36 59.038 455.504 59.632 455.504 60.388C455.504 61.828 455.162 62.944 454.478 63.736C453.146 65.356 451.256 66.85 448.808 68.218C446.396 69.586 443.804 70.27 441.032 70.27C437.252 70.27 434.318 69.244 432.23 67.192C430.142 65.14 429.098 62.332 429.098 58.768C429.098 56.284 429.62 53.98 430.664 51.856C431.708 49.696 433.148 47.986 434.984 46.726C436.856 45.466 438.962 44.836 441.302 44.836C443.39 44.836 445.064 45.466 446.324 46.726C447.584 47.95 448.214 49.624 448.214 51.748C448.214 54.232 447.314 56.374 445.514 58.174C443.75 59.938 440.744 61.342 436.496 62.386C437.396 64.042 439.106 64.87 441.626 64.87C443.246 64.87 445.082 64.312 447.134 63.196C449.222 62.044 451.022 60.55 452.534 58.714C452.966 58.21 453.452 57.958 453.992 57.958ZM440.384 50.128C439.052 50.128 437.918 50.902 436.982 52.45C436.082 53.998 435.632 55.87 435.632 58.066V58.174C437.756 57.67 439.43 56.914 440.654 55.906C441.878 54.898 442.49 53.728 442.49 52.396C442.49 51.712 442.292 51.172 441.896 50.776C441.536 50.344 441.032 50.128 440.384 50.128ZM479.836 53.422C480.304 53.422 480.664 53.656 480.916 54.124C481.168 54.592 481.294 55.186 481.294 55.906C481.294 56.806 481.168 57.508 480.916 58.012C480.664 58.48 480.268 58.804 479.728 58.984C477.568 59.74 475.192 60.172 472.6 60.28C471.88 63.268 470.512 65.68 468.496 67.516C466.516 69.352 464.32 70.27 461.908 70.27C458.272 70.27 455.626 68.884 453.97 66.112C452.314 63.34 451.486 59.326 451.486 54.07C451.486 49.426 452.062 44.386 453.214 38.95C454.366 33.478 456.04 28.834 458.236 25.018C460.468 21.166 463.114 19.24 466.174 19.24C467.83 19.24 469.162 19.96 470.17 21.4C471.178 22.804 471.682 24.64 471.682 26.908C471.682 29.86 471.124 32.794 470.008 35.71C468.892 38.626 467.038 41.686 464.446 44.89C466.858 45.07 468.82 46.078 470.332 47.914C471.844 49.714 472.744 51.946 473.032 54.61C474.724 54.502 476.74 54.142 479.08 53.53C479.296 53.458 479.548 53.422 479.836 53.422ZM464.932 24.586C464.212 24.586 463.42 25.666 462.556 27.826C461.728 29.95 460.954 32.848 460.234 36.52C459.514 40.192 458.974 44.206 458.614 48.562C460.99 44.206 462.88 40.372 464.284 37.06C465.724 33.712 466.444 30.742 466.444 28.15C466.444 26.998 466.3 26.116 466.012 25.504C465.76 24.892 465.4 24.586 464.932 24.586ZM462.124 64.546C463.24 64.546 464.23 64.078 465.094 63.142C465.958 62.206 466.534 60.856 466.822 59.092C465.706 58.336 464.842 57.346 464.23 56.122C463.654 54.898 463.366 53.602 463.366 52.234C463.366 51.73 463.438 51.046 463.582 50.182H463.42C461.944 50.182 460.702 50.92 459.694 52.396C458.722 53.836 458.236 55.78 458.236 58.228C458.236 60.28 458.614 61.846 459.37 62.926C460.162 64.006 461.08 64.546 462.124 64.546ZM504.171 53.422C504.639 53.422 504.999 53.656 505.251 54.124C505.503 54.592 505.629 55.186 505.629 55.906C505.629 57.634 505.107 58.66 504.063 58.984C501.903 59.74 499.527 60.172 496.935 60.28C496.251 63.304 494.901 65.734 492.885 67.57C490.869 69.37 488.583 70.27 486.027 70.27C483.867 70.27 482.013 69.748 480.465 68.704C478.953 67.66 477.801 66.274 477.009 64.546C476.217 62.818 475.821 60.946 475.821 58.93C475.821 56.194 476.343 53.764 477.387 51.64C478.431 49.48 479.871 47.806 481.707 46.618C483.543 45.394 485.577 44.782 487.809 44.782C490.545 44.782 492.741 45.736 494.397 47.644C496.089 49.516 497.079 51.838 497.367 54.61C499.059 54.502 501.075 54.142 503.415 53.53C503.703 53.458 503.955 53.422 504.171 53.422ZM486.459 64.546C487.611 64.546 488.601 64.078 489.429 63.142C490.293 62.206 490.869 60.856 491.157 59.092C490.041 58.336 489.177 57.346 488.565 56.122C487.989 54.898 487.701 53.602 487.701 52.234C487.701 51.658 487.755 51.082 487.863 50.506H487.593C486.153 50.506 484.947 51.208 483.975 52.612C483.039 53.98 482.571 55.924 482.571 58.444C482.571 60.424 482.949 61.936 483.705 62.98C484.497 64.024 485.415 64.546 486.459 64.546ZM507.636 70.27C505.404 70.27 503.622 69.46 502.29 67.84C500.958 66.22 500.292 64.096 500.292 61.468C500.292 58.588 500.958 55.87 502.29 53.314C503.622 50.722 505.386 48.652 507.582 47.104C509.814 45.52 512.172 44.728 514.656 44.728C515.448 44.728 515.97 44.89 516.222 45.214C516.51 45.502 516.744 46.042 516.924 46.834C517.68 46.69 518.472 46.618 519.3 46.618C521.064 46.618 521.946 47.248 521.946 48.508C521.946 49.264 521.676 51.064 521.136 53.908C520.308 58.048 519.894 60.928 519.894 62.548C519.894 63.088 520.02 63.52 520.272 63.844C520.56 64.168 520.92 64.33 521.352 64.33C522.036 64.33 522.864 63.898 523.836 63.034C524.808 62.134 526.122 60.694 527.778 58.714C528.21 58.21 528.696 57.958 529.236 57.958C529.704 57.958 530.064 58.174 530.316 58.606C530.604 59.038 530.748 59.632 530.748 60.388C530.748 61.828 530.406 62.944 529.722 63.736C528.246 65.572 526.68 67.12 525.024 68.38C523.368 69.64 521.766 70.27 520.218 70.27C519.03 70.27 517.932 69.874 516.924 69.082C515.952 68.254 515.214 67.138 514.71 65.734C512.838 68.758 510.48 70.27 507.636 70.27ZM509.58 64.816C510.372 64.816 511.128 64.348 511.848 63.412C512.568 62.476 513.09 61.234 513.414 59.686L515.412 49.75C513.9 49.786 512.496 50.362 511.2 51.478C509.94 52.558 508.932 53.998 508.176 55.798C507.42 57.598 507.042 59.506 507.042 61.522C507.042 62.638 507.258 63.466 507.69 64.006C508.158 64.546 508.788 64.816 509.58 64.816ZM530.194 70.27C528.826 70.27 527.854 69.55 527.278 68.11C526.738 66.67 526.468 64.366 526.468 61.198C526.468 56.518 527.134 52.072 528.466 47.86C528.79 46.816 529.312 46.06 530.032 45.592C530.788 45.088 531.832 44.836 533.164 44.836C533.884 44.836 534.388 44.926 534.676 45.106C534.964 45.286 535.108 45.628 535.108 46.132C535.108 46.708 534.838 48.004 534.298 50.02C533.938 51.46 533.65 52.72 533.434 53.8C533.218 54.88 533.038 56.212 532.894 57.796C534.082 54.7 535.414 52.18 536.89 50.236C538.366 48.292 539.806 46.906 541.21 46.078C542.65 45.25 543.964 44.836 545.152 44.836C547.492 44.836 548.662 46.006 548.662 48.346C548.662 48.814 548.5 49.948 548.176 51.748C547.888 53.188 547.744 54.088 547.744 54.448C547.744 55.708 548.194 56.338 549.094 56.338C550.102 56.338 551.398 55.546 552.982 53.962C553.45 53.494 553.936 53.26 554.44 53.26C554.908 53.26 555.268 53.476 555.52 53.908C555.808 54.304 555.952 54.844 555.952 55.528C555.952 56.86 555.592 57.904 554.872 58.66C553.864 59.704 552.676 60.604 551.308 61.36C549.976 62.08 548.554 62.44 547.042 62.44C545.134 62.44 543.676 61.954 542.668 60.982C541.696 60.01 541.21 58.696 541.21 57.04C541.21 56.5 541.264 55.96 541.372 55.42C541.444 54.7 541.48 54.214 541.48 53.962C541.48 53.386 541.282 53.098 540.886 53.098C540.346 53.098 539.626 53.71 538.726 54.934C537.862 56.122 536.998 57.706 536.134 59.686C535.27 61.666 534.568 63.754 534.028 65.95C533.632 67.642 533.164 68.794 532.624 69.406C532.12 69.982 531.31 70.27 530.194 70.27ZM570.59 57.958C570.986 60.91 571.562 63.826 572.318 66.706C572.462 67.174 572.534 67.66 572.534 68.164C572.534 69.784 571.544 70.594 569.564 70.594C568.448 70.594 567.584 70.288 566.972 69.676C566.396 69.064 565.856 67.912 565.352 66.22L565.298 66.004C563.93 67.696 562.688 68.83 561.572 69.406C560.492 69.982 559.232 70.27 557.792 70.27C555.596 70.27 553.778 69.46 552.338 67.84C550.934 66.184 550.232 64.042 550.232 61.414C550.232 58.534 550.844 55.87 552.068 53.422C553.292 50.974 554.966 48.976 557.09 47.428C559.214 45.844 561.59 44.89 564.218 44.566C564.902 37.762 566.198 31.84 568.106 26.8C570.05 21.76 572.624 19.24 575.828 19.24C577.376 19.24 578.654 19.942 579.662 21.346C580.706 22.75 581.228 24.874 581.228 27.718C581.228 31.678 580.256 36.304 578.312 41.596C576.368 46.888 573.794 52.342 570.59 57.958ZM575.234 24.532C574.19 24.532 573.2 27.196 572.264 32.524C571.364 37.852 570.752 43.648 570.428 49.912C574.424 41.272 576.422 34.252 576.422 28.852C576.422 27.484 576.296 26.422 576.044 25.666C575.828 24.91 575.558 24.532 575.234 24.532ZM559.682 64.816C560.402 64.816 561.086 64.546 561.734 64.006C562.418 63.466 563.282 62.422 564.326 60.874C563.966 58.246 563.786 55.528 563.786 52.72C563.786 51.604 563.804 50.74 563.84 50.128C561.86 50.704 560.222 52.018 558.926 54.07C557.63 56.122 556.982 58.39 556.982 60.874C556.982 63.502 557.882 64.816 559.682 64.816Z" fill="white"/>
<defs>
<linearGradient id="paint0_linear_1482_2" x1="0.00369229" y1="49.7777" x2="35.6304" y2="49.7777" gradientUnits="userSpaceOnUse">
<stop stop-color="white"/>
<stop offset="1" stop-color="#CBCBCB"/>
</linearGradient>
<linearGradient id="paint1_linear_1482_2" x1="35.6304" y1="53.5379" x2="58.6535" y2="53.5379" gradientUnits="userSpaceOnUse">
<stop stop-color="white"/>
<stop offset="1" stop-color="#CBCBCB"/>
</linearGradient>
</defs>
</svg>
