<svg width="500" height="500" viewBox="0 0 500 500" fill="none" xmlns="http://www.w3.org/2000/svg">
<path d="M441.63 302.37C441.631 335.545 432.254 368.044 414.583 396.121C396.912 424.197 371.665 446.707 341.754 461.056C311.843 475.405 278.486 481.008 245.528 477.219C212.57 473.429 181.355 460.403 155.48 439.64C166.693 442.127 178.145 443.378 189.63 443.37C228.21 443.37 263.72 429.37 291.91 406C323.61 379.68 346.05 341.39 353.19 297.55C370.13 299.71 388.89 293.87 403.49 280.22C412.393 271.99 418.848 261.459 422.141 249.79C424.527 241.368 424.894 232.501 423.21 223.91C423.67 224.8 424.11 225.71 424.54 226.61C435.826 250.27 441.665 276.157 441.63 302.37Z" fill="#14626C"/>
<path d="M291.91 406C263.72 429.41 228.21 443.37 189.63 443.37C178.145 443.377 166.693 442.127 155.48 439.64C135.391 423.525 119.084 403.197 107.709 380.092C96.3332 356.987 90.1671 331.666 89.6455 305.918C89.1238 280.17 94.2593 254.62 104.69 231.073C115.12 207.526 130.591 186.555 150.01 169.64C128.51 194.7 115.63 226.64 115.63 261.34C115.63 341.97 185.03 407.34 270.63 407.34C277.745 407.355 284.854 406.907 291.91 406V406Z" fill="url(#paint0_linear_2_269)"/>
<path d="M422.63 261.61C422.63 335.32 365.75 396.26 291.91 406C322.98 379.65 344.91 341.29 351.91 297.37L353.23 297.55C370.17 299.71 388.93 293.87 403.53 280.22C412.433 271.99 418.888 261.459 422.18 249.79C422.473 253.69 422.623 257.63 422.63 261.61Z" fill="url(#paint1_linear_2_269)"/>
<path d="M394.63 211.37C390.63 231.37 378.63 255.37 341.63 257.37C341.63 254.37 362.63 245.37 351.63 217.37C348.77 212.8 344.29 205.63 333.89 201.61C326.08 198.61 314.89 197.37 298.63 200.37C269.63 208.37 208.63 239.37 224.63 312.37C230.56 336.09 236.31 366.65 293.5 386.66C288.892 387.134 284.263 387.371 279.63 387.37C256.379 387.411 233.523 381.362 213.336 369.824C193.149 358.287 176.336 341.664 164.57 321.61C164.44 321.4 164.32 321.19 164.2 320.97C152.662 301.035 146.601 278.403 146.63 255.37V254.72C146.692 236.077 150.746 217.664 158.52 200.72V200.72C162.498 192.056 167.407 183.851 173.16 176.25C127.16 144.42 119.7 87.8098 123.63 56.3398C149.98 121.49 200.57 130.22 225.79 130.22C230.835 130.281 235.875 129.889 240.85 129.05C265.131 121.726 290.992 121.45 315.423 128.253C339.854 135.057 361.85 148.66 378.85 167.48C378.887 167.51 378.92 167.543 378.95 167.58C380.73 169.58 382.46 171.58 384.12 173.71C387.461 178.241 390.154 183.215 392.12 188.49C394.923 195.771 395.788 203.654 394.63 211.37V211.37Z" fill="url(#paint2_radial_2_269)"/>
<path d="M251.8 32.6701L305.3 24.5801L341.44 63.9801L317.56 63.3701L269.25 45.9601L251.8 32.6701Z" fill="#4D4D4D"/>
<path d="M317.16 65.3595L314.16 72.0395H314.09L298.6 69.3395L297.95 69.2295C296.35 68.6095 294.803 67.9995 293.31 67.3995C290.87 66.3995 288.56 65.4695 286.4 64.5495C275.47 59.7595 267.24 54.7895 266.61 52.5995C266.6 52.4497 266.6 52.2994 266.61 52.1495C266.72 51.1495 267.42 50.6795 269 46.8995C269.82 44.9595 269.72 44.8995 270.13 44.0495C271.385 41.6073 273.4 39.6387 275.87 38.4395C277.13 37.8395 279.26 37.1595 285.36 38.2195C290.321 39.1412 295.153 40.6589 299.75 42.7395C304.215 44.5404 308.438 46.892 312.32 49.7395C316.68 53.0395 317.6 54.8295 318.03 56.0195C319.47 59.9995 317.87 63.8795 317.16 65.3595Z" fill="url(#paint3_linear_2_269)"/>
<path d="M314.05 72C313.43 73.43 307.12 72.24 298.6 69.31C296.91 68.73 295.14 68.08 293.31 67.37C291.86 66.81 290.36 66.21 288.85 65.57L286.4 64.57C275.47 59.78 267.24 54.81 266.61 52.62C266.554 52.4614 266.554 52.2886 266.61 52.13C267.43 50.13 278.72 53.05 291.82 58.55C304.92 64.05 314.88 70.06 314.05 72Z" fill="#4D4D4D"/>
<path d="M305.81 23.4697L305.3 24.5797L341.44 63.9797L341.95 62.8597L305.81 23.4697Z" fill="#333333"/>
<path d="M305.3 24.5797L305.81 23.4697L252.31 31.5597L251.8 32.6697L305.3 24.5797Z" fill="#808080"/>
<path d="M321.94 41C321.94 41 326.81 41.36 329.13 48.79C330.65 54.69 329.96 61.79 330.13 62.84C330.3 63.89 330.49 72.4 334.47 74.71C335.723 74.8114 336.955 75.0874 338.13 75.53C339.8 76.29 343.51 78.82 346.67 79.25C346.796 79.8298 346.772 80.4321 346.6 81C346.428 81.7206 346.208 82.4289 345.94 83.12C345.94 83.12 336 82.47 333.5 75.79C330.302 72.2466 328.565 67.6228 328.64 62.85C328.44 57.72 329.4 46.74 321.94 41Z" fill="url(#paint4_linear_2_269)"/>
<path d="M280.13 119.37C297.527 119.37 311.63 105.267 311.63 87.8701C311.63 70.4732 297.527 56.3701 280.13 56.3701C262.733 56.3701 248.63 70.4732 248.63 87.8701C248.63 105.267 262.733 119.37 280.13 119.37Z" fill="url(#paint5_radial_2_269)"/>
<path d="M346.81 80.1499C346.81 80.1499 342.44 81.0999 340.75 79.6299C342.19 82.0699 346.32 82.0899 346.32 82.0899L346.81 80.1499Z" fill="url(#paint6_linear_2_269)"/>
<defs>
<linearGradient id="paint0_linear_2_269" x1="89.6303" y1="306.52" x2="291.91" y2="306.52" gradientUnits="userSpaceOnUse">
<stop stop-color="#40E0D0"/>
<stop offset="1" stop-color="#14626C"/>
</linearGradient>
<linearGradient id="paint1_linear_2_269" x1="291.91" y1="327.9" x2="422.63" y2="327.9" gradientUnits="userSpaceOnUse">
<stop stop-color="#40E0D0"/>
<stop offset="1" stop-color="#14626C"/>
</linearGradient>
<radialGradient id="paint2_radial_2_269" cx="0" cy="0" r="1" gradientUnits="userSpaceOnUse" gradientTransform="translate(258.94 221.87) scale(151.57 151.57)">
<stop stop-color="#3871B5"/>
<stop offset="1" stop-color="#163F7C"/>
</radialGradient>
<linearGradient id="paint3_linear_2_269" x1="266.6" y1="54.8295" x2="318.62" y2="54.8295" gradientUnits="userSpaceOnUse">
<stop stop-color="#666666"/>
<stop offset="0.1" stop-color="#595959"/>
<stop offset="0.3" stop-color="#444444"/>
<stop offset="0.5" stop-color="#373737"/>
<stop offset="0.69" stop-color="#333333"/>
</linearGradient>
<linearGradient id="paint4_linear_2_269" x1="315.86" y1="54.39" x2="351.617" y2="70.6251" gradientUnits="userSpaceOnUse">
<stop stop-color="#FFE203"/>
<stop offset="1" stop-color="#F7941F"/>
</linearGradient>
<radialGradient id="paint5_radial_2_269" cx="0" cy="0" r="1" gradientUnits="userSpaceOnUse" gradientTransform="translate(276.25 79.2801) scale(31.5 31.5)">
<stop stop-color="#CDDBED"/>
<stop offset="0.07" stop-color="#ACBFD9"/>
<stop offset="0.17" stop-color="#7F98BD"/>
<stop offset="0.28" stop-color="#5978A5"/>
<stop offset="0.38" stop-color="#3C5F93"/>
<stop offset="0.49" stop-color="#274D86"/>
<stop offset="0.59" stop-color="#1A437F"/>
<stop offset="0.69" stop-color="#163F7C"/>
</radialGradient>
<linearGradient id="paint6_linear_2_269" x1="341.915" y1="78.7142" x2="346.507" y2="82.4113" gradientUnits="userSpaceOnUse">
<stop stop-color="#FFE203"/>
<stop offset="1" stop-color="#F7941F"/>
</linearGradient>
</defs>
</svg>
